<?xml version="1.0" encoding="utf-8"?>
<!-- Generator: Adobe Illustrator 26.0.0, SVG Export Plug-In . SVG Version: 6.00 Build 0)  -->
<svg version="1.1" id="Capa_1" xmlns="http://www.w3.org/2000/svg" xmlns:xlink="http://www.w3.org/1999/xlink" x="0px" y="0px"
	 viewBox="0 0 2000 2000" style="enable-background:new 0 0 2000 2000;" xml:space="preserve">
<style type="text/css">
	.st0{fill:#6B85FE;}
	.st1{fill:#B5FE00;}
	.st2{fill:#FFFFFF;}
	.st3{fill:none;stroke:#000000;stroke-miterlimit:10;}
</style>
<path class="st0" d="M1691.2,880.5c-64-69.3-501.4-437.4-970.8-501.4c-451.8-61.6-621.9,247.5-634,589.4l0,0v0v0l0,0
	c12.1,342,182.1,651,634,589.4c469.4-64,906.8-432.1,970.8-501.4c25.6-27.8,45.2-53.8,42.1-88
	C1736.3,934.3,1716.8,908.2,1691.2,880.5z"/>
<path class="st1" d="M1253.2,1454.6c25.8-22.9,219-198.9,408-220c182-20.3,250.4,81.6,255.3,194.4l0,0l0,0l0,0l0,0
	c-4.9,112.8-72.4,202.6-255.3,194.4c-193.4-8.7-382.2-87.8-408-110.7c-10.3-9.2-18.2-17.8-17-29
	C1235,1472.4,1242.9,1463.8,1253.2,1454.6z"/>
<polygon class="st2" points="1291.5,1348.6 1446.5,780.5 1380.5,780.5 1298.5,1092.6 1224.5,780.5 1150.4,780.5 1264.5,1196.6 
	1216.9,1389.5 "/>
<path class="st2" d="M703.4,770.5c-89,0-127,82-127,82l48,42c0,0,26-64,88-64s66,42,66,64c0,22-28,45.9-102,74
	c-74,28-114,62-114,124.1c0,62,56,122,118,122c62,0,98-52,98-52v52h66v-342C844.4,872.5,852.4,770.5,703.4,770.5z M770.4,1086.6
	c0,0-9.9,64-67,68c-57,4-77-70-47-104c30-34,114-58,114-58V1086.6z"/>
<path class="st3" d="M1110.4,844.5"/>
<path class="st2" d="M1110.4,844.5c0,0-145.4-58-153.4,36.7c-8,94.7,193.4,34.7,193.4,210.7c0,176-272,102.7-272,102.7l16-49.3
	c0,0,190.7,40,190.7-52c0-92-206.7-88-206.7-205.4c0-117.4,130.7-129.4,189.4-117.4c58.7,12,62.7,21.3,62.7,21.3L1110.4,844.5z"/>
<path class="st2" d="M386.4,1143.9c-38.7-40-34-150.7-34-150.7h151.4l-1.3-36l1.3-36H352.3c0,0-4.7-110.7,34-150.7
	c38.7-40,164-14,164-14L527,699.2c0,0-133.5-35.2-198.7,30c-63.3,63.3-60,228-60,228s-3.3,164.7,60,228c65.2,65.2,198.7,30,198.7,30
	l23.3-57.3C550.4,1157.9,425,1183.9,386.4,1143.9z"/>
<g>
	
		<image style="overflow:visible;" width="2533" height="1137" xlink:href="D305211.png"  transform="matrix(0.24 0 0 0.24 456.936 416.647)">
	</image>
</g>
<g>
	
		<image style="overflow:visible;" width="885" height="839" xlink:href="D305213.png"  transform="matrix(0.24 0 0 0.24 1643.1787 1251.1035)">
	</image>
</g>
</svg>
