<?xml version="1.0" encoding="UTF-8" standalone="no"?>
<!-- Generator: Adobe Illustrator 24.0.3, SVG Export Plug-In . SVG Version: 6.00 Build 0)  -->

<svg
   xmlns:dc="http://purl.org/dc/elements/1.1/"
   xmlns:cc="http://creativecommons.org/ns#"
   xmlns:rdf="http://www.w3.org/1999/02/22-rdf-syntax-ns#"
   xmlns:svg="http://www.w3.org/2000/svg"
   xmlns="http://www.w3.org/2000/svg"
   xmlns:sodipodi="http://sodipodi.sourceforge.net/DTD/sodipodi-0.dtd"
   xmlns:inkscape="http://www.inkscape.org/namespaces/inkscape"
   version="1.1"
   id="Layer_1"
   x="0px"
   y="0px"
   viewBox="0 0 700 700"
   xml:space="preserve"
   sodipodi:docname="ge-general-electric-logo.svg"
   width="700"
   height="700"
   inkscape:export-filename="G:\Users\suitedoalex\sites\ge-general-electric-logo-0.png"
   inkscape:export-xdpi="561.73712"
   inkscape:export-ydpi="561.73712"
   inkscape:version="0.92.4 (5da689c313, 2019-01-14)"><metadata
   id="metadata13"><rdf:RDF><cc:Work
       rdf:about=""><dc:format>image/svg+xml</dc:format><dc:type
         rdf:resource="http://purl.org/dc/dcmitype/StillImage" /><dc:title></dc:title></cc:Work></rdf:RDF></metadata><defs
   id="defs11" /><sodipodi:namedview
   pagecolor="#ffffff"
   bordercolor="#666666"
   borderopacity="1"
   objecttolerance="10"
   gridtolerance="10"
   guidetolerance="10"
   inkscape:pageopacity="0"
   inkscape:pageshadow="2"
   inkscape:window-width="1600"
   inkscape:window-height="837"
   id="namedview9"
   showgrid="false"
   inkscape:zoom="0.60204082"
   inkscape:cx="433.53621"
   inkscape:cy="270.71691"
   inkscape:window-x="-8"
   inkscape:window-y="-8"
   inkscape:window-maximized="1"
   inkscape:current-layer="Layer_1" />
<style
   type="text/css"
   id="style2">
	.st0{fill:#385CAD;}
</style>

<path
   style="fill:#ffffff;stroke:none;stroke-width:1px;stroke-linecap:butt;stroke-linejoin:miter;stroke-opacity:1"
   d="m 120.61107,359.90112 c 0,0 4.26849,-100.39461 52.85324,-155.62342 91.77119,-92.60169 166.53756,-83.21851 166.53756,-83.21851 125.08597,-12.91968 206.79657,106.30509 206.79657,106.30509 68.122,115.68986 8.3051,232.54237 8.3051,232.54237 C 490.50514,557.39151 412.25611,572.02529 412.25611,572.02529 280.71028,603.73723 208.78153,529.66936 208.78153,529.66936 128.63746,471.53377 120.61107,359.90112 120.61107,359.90112 Z"
   id="path820"
   inkscape:connector-curvature="0"
   sodipodi:nodetypes="cccccccc" /><g
   id="g6"
   transform="matrix(4.7966101,0,0,4.7966101,114.96611,114.96611)"
   inkscape:export-filename="G:\Users\suitedoalex\sites\ge-general-electric-logo-4.png"
   inkscape:export-xdpi="81.690308"
   inkscape:export-ydpi="81.690308"><path
     class="st0"
     d="M 49,98 C 22,98 0,76.1 0,49 0,22 22,0 49,0 76,0 98,22 98,49 98,76.1 76,98 49,98 Z M 49,2.3 C 23.2,2.3 2.3,23.2 2.3,49 2.3,74.8 23.2,95.7 49,95.7 74.8,95.7 95.7,74.8 95.7,49 95.7,23.4 74.8,2.3 49,2.3 Z M 90.5,63 c 0,0 -0.1,0.1 -0.3,0 -0.1,0 -0.2,-0.1 -0.1,-0.2 0,-0.1 1.6,-4.9 1.6,-10.4 0,-6 -2.4,-9.6 -5.6,-9.6 -1.9,0 -3.3,1.4 -3.3,3.4 0,3.7 4.5,3.9 4.5,11.9 0,3.3 -0.7,6.4 -1.8,9.8 -5,17 -21,24.8 -36.6,24.8 -7.2,0 -12.3,-1.5 -13.8,-2.2 -0.1,0 -0.1,-0.2 -0.1,-0.3 0,-0.1 0.1,-0.2 0.2,-0.1 0.6,0.2 5,1.6 10.4,1.6 6,0 9.5,-2.5 9.5,-5.4 0,-1.9 -1.5,-3.4 -3.4,-3.4 -3.7,0 -3.9,4.6 -11.8,4.6 -3.4,0 -6.4,-0.7 -9.9,-1.8 C 13.3,80.6 5.3,64.7 5.3,49 c 0,-7.7 2.1,-13.8 2.2,-13.8 0,-0.1 0.1,-0.1 0.3,-0.1 0.1,0.1 0.1,0.2 0.1,0.2 -0.2,0.6 -1.6,5 -1.6,10.4 0,6 2.4,9.5 5.6,9.5 1.8,0 3.3,-1.4 3.3,-3.3 0,-3.7 -4.5,-4.1 -4.5,-12 0,-3.4 0.7,-6.4 1.8,-9.9 5,-16.7 20.9,-24.6 36.5,-24.7 7.3,0 13.6,2.1 13.8,2.3 0,0 0.1,0.1 0,0.2 0,0.2 0,0.2 -0.1,0.2 -0.1,0 -4.2,-1.7 -10.5,-1.7 -5.8,0 -9.5,2.5 -9.5,5.6 0,1.8 1.4,3.3 3.4,3.3 3.7,0 3.9,-4.5 11.8,-4.5 3.4,0 6.4,0.7 9.9,1.8 17,5.2 24.7,21.2 24.8,36.6 0.2,7.8 -2.1,13.8 -2.1,13.9 z M 67.2,51.3 c -4.6,0 -8.2,3.4 -8.2,7.5 0,3.4 2,6.1 4.8,6.1 1,0 1.9,-0.5 1.9,-1.8 0,-1.8 -2.3,-2.2 -2.2,-4.8 0.1,-1.7 1.8,-2.9 3.4,-2.9 3.3,0 4.8,3.2 4.8,6.4 -0.1,5 -3.8,8.5 -8.2,8.5 -5.7,0 -9.4,-5.4 -9.4,-11.3 0,-8.7 5.7,-12.1 8.7,-12.9 0,0 7.8,1.4 7.6,-2 -0.1,-1.5 -2.3,-2.1 -4,-2.2 -1.8,-0.1 -3.6,0.6 -3.6,0.6 -0.9,-0.5 -1.6,-1.4 -2,-2.5 5.6,-4.2 9.5,-8.3 9.5,-12.9 0,-2.5 -1.6,-4.6 -4.8,-4.6 -5.5,0 -9.8,7.1 -9.8,13.4 0,1.1 0,2.2 0.3,3.1 -3.5,2.6 -6.2,4.2 -10.9,7 0,-0.6 0.1,-2.1 0.5,-4.1 1.6,-1.8 3.9,-4.4 3.9,-6.4 0,-1 -0.5,-1.8 -1.6,-1.8 -2.7,0 -4.8,4.1 -5.3,6.9 -1.2,1.5 -3.7,3.4 -5.7,3.4 -1.6,0 -2.2,-1.5 -2.3,-2 5.2,-1.8 11.5,-8.8 11.5,-15.2 0,-1.4 -0.5,-4.3 -4.6,-4.3 -6.1,0 -11.3,9.1 -11.3,16.2 -2.2,0 -3,-2.3 -3,-4.1 0,-1.8 0.7,-3.5 0.7,-4.1 0,-0.5 -0.3,-1.2 -1.1,-1.2 -2,0 -3.3,2.7 -3.3,5.8 0.1,4.3 3,7.1 6.8,7.3 0.5,2.6 2.8,5 5.7,5 1.8,0 3.9,-0.6 5.4,-1.9 -0.1,1 -0.3,1.8 -0.4,2.6 -6,3.1 -10.3,5.3 -14.3,8.8 -3.1,2.8 -4.9,6.6 -4.9,9.6 0,4.1 2.6,7.9 7.9,7.9 6.2,0 11,-5 13.3,-11.9 1.1,-3.3 1.5,-8 1.8,-12.3 6.2,-3.5 9.2,-5.6 12.5,-7.9 0.4,0.7 0.8,1.2 1.4,1.6 -2.9,1.5 -9.6,5.7 -9.6,15.6 0,7.1 4.8,14.9 14.1,14.9 7.7,0 13,-6.4 13,-12.5 0.1,-5.4 -3,-10.6 -9,-10.6 z m -37.3,19 c -2,0.1 -3.4,-1.2 -3.4,-3.4 0,-5.8 8.1,-11.4 14.2,-14.4 -1.1,8.2 -3.9,17.5 -10.8,17.8 z m 4.4,-32 c 0,-4.5 4.4,-13 7.1,-12.1 3.3,1.1 -2.6,9.6 -7.1,12.1 z M 60,36.2 c 0,-5.6 3.8,-11 5.8,-9.9 2.4,1.2 -1.7,6.4 -5.8,9.9 z"
     id="path4"
     inkscape:connector-curvature="0"
     style="fill:#385cad" /></g></svg>