<?xml version="1.0" encoding="utf-8"?>
<!-- Generator: Adobe Illustrator 26.0.0, SVG Export Plug-In . SVG Version: 6.00 Build 0)  -->
<svg version="1.1"
	 id="svg2" xmlns:cc="http://creativecommons.org/ns#" xmlns:dc="http://purl.org/dc/elements/1.1/" xmlns:inkscape="http://www.inkscape.org/namespaces/inkscape" xmlns:rdf="http://www.w3.org/1999/02/22-rdf-syntax-ns#" xmlns:sodipodi="http://sodipodi.sourceforge.net/DTD/sodipodi-0.dtd" xmlns:svg="http://www.w3.org/2000/svg"
	 xmlns="http://www.w3.org/2000/svg" xmlns:xlink="http://www.w3.org/1999/xlink" x="0px" y="0px" viewBox="0 0 890.6 539.1"
	 style="enable-background:new 0 0 890.6 539.1;" xml:space="preserve">
<style type="text/css">
	.st0{fill:#6D6E70;}
	.st1{clip-path:url(#SVGID_00000036959981175659902800000017598000770513407675_);}
	.st2{fill:url(#path50_00000110434797343400487030000015855088950229138102_);}
	.st3{fill:url(#path74_00000059280191095996534000000001850255031985234364_);}
	.st4{fill:url(#path96_00000165942176868316624780000015208427367971994266_);}
	.st5{clip-path:url(#SVGID_00000061447931677169326960000001292858191041023652_);}
	.st6{fill:#626D77;}
	.st7{fill:#8699A3;}
	.st8{fill:#8D9AA1;}
	.st9{fill:url(#path138_00000045620025598411882270000004120180168087102648_);}
	.st10{fill:url(#path160_00000134235939825542940550000018040202867040666038_);}
	.st11{clip-path:url(#SVGID_00000024688421609826778230000008130441195373499297_);}
	.st12{fill:#B4BDC3;}
	.st13{fill:url(#path192_00000116212108330674634340000010461896573598204835_);}
	.st14{clip-path:url(#SVGID_00000181774354763080612470000008749353388142987706_);}
	.st15{fill:#505C61;}
	.st16{fill:#0B1F28;}
	.st17{fill:#8F9CA4;}
	.st18{fill:url(#path232_00000122686056115819048610000014430107757170844856_);}
	.st19{fill:url(#path252_00000081647689056309675680000000684508688734851748_);}
	.st20{clip-path:url(#SVGID_00000151513117477786162300000016509668831778455428_);}
	.st21{fill:url(#path286_00000094598259281087611780000005124917014662518191_);}
	.st22{fill:url(#path310_00000026124529123001546840000012688704949286378381_);}
	.st23{fill:url(#path334_00000058550298919646964320000009075609836043852437_);}
	.st24{clip-path:url(#SVGID_00000181045965487692686880000006410529271779403672_);}
	.st25{fill:#FFFFFF;}
</style>
<sodipodi:namedview  bordercolor="#666666" borderopacity="1" fit-margin-bottom="0" fit-margin-left="0" fit-margin-right="0" fit-margin-top="0" gridtolerance="10" guidetolerance="10" id="namedview4" inkscape:current-layer="g10" inkscape:cx="1177.4299" inkscape:cy="202.27737" inkscape:pageopacity="0" inkscape:pageshadow="2" inkscape:window-height="837" inkscape:window-maximized="1" inkscape:window-width="1600" inkscape:window-x="-8" inkscape:window-y="-8" inkscape:zoom="0.29487225" objecttolerance="10" pagecolor="#ffffff" showgrid="false">
	</sodipodi:namedview>
<g id="g10" transform="matrix(1.3333333,0,0,-1.3333333,-182.48266,656.16717)" inkscape:groupmode="layer" inkscape:label="lg-logo">
	
		<g id="g12" transform="translate(480.0454,379.6504)" inkscape:export-filename="C:\Users\suitedoalex\sites\lg-logo-14.png" inkscape:export-xdpi="6.3443303" inkscape:export-ydpi="6.3443303">
		<path id="path14" inkscape:connector-curvature="0" class="st0" d="M42.2,0H4.9v-161.6h114.7v31.5H42.2V0z"/>
	</g>
	
		<g id="g16" inkscape:export-filename="C:\Users\suitedoalex\sites\lg-logo-14.png" inkscape:export-xdpi="6.3443303" inkscape:export-ydpi="6.3443303">
		<g>
			<defs>
				<rect id="SVGID_1_" x="-98.1" y="-99.2" width="1122.5" height="793.7"/>
			</defs>
			<clipPath id="SVGID_00000107558465464335324280000014561352086611361949_">
				<use xlink:href="#SVGID_1_"  style="overflow:visible;"/>
			</clipPath>
			<g id="g18" style="clip-path:url(#SVGID_00000107558465464335324280000014561352086611361949_);">
				<g id="g24" transform="translate(639.5068,279.6543)">
					<path id="path26" inkscape:connector-curvature="0" class="st0" d="M42.2,0h30.4v-28.3c-5.6-2.1-16.5-4.3-26.9-4.3
						c-33.6,0-44.8,17.1-44.8,51.7c0,33.1,10.7,52.5,44.3,52.5c18.7,0,29.3-5.9,38.1-17.1L106.5,76c-14.1,20.3-38.9,26.4-62.1,26.4
						c-52.3,0-79.7-28.5-79.7-82.9c0-54.1,24.8-83.5,79.5-83.5c25.1,0,49.6,6.4,62.9,15.7v78.4H42.2V0z"/>
				</g>
			</g>
		</g>
	</g>
	
		<g id="g28" inkscape:export-filename="C:\Users\suitedoalex\sites\lg-logo-14.png" inkscape:export-xdpi="6.3443303" inkscape:export-ydpi="6.3443303">
		<g id="g30">
			<g id="g36">
				<g id="g38">
					
						<radialGradient id="path50_00000092440554747605287850000005312941652926142344_" cx="921.5645" cy="-26.6939" r="1" gradientTransform="matrix(173.7561 0 0 173.7561 -159828.0781 4940.189)" gradientUnits="userSpaceOnUse">
						<stop  offset="0" style="stop-color:#BF0C3F"/>
						<stop  offset="0.5" style="stop-color:#BF0C3F"/>
						<stop  offset="0.8838" style="stop-color:#BF0C3F"/>
						<stop  offset="1" style="stop-color:#99002C"/>
					</radialGradient>
					
						<path id="path50" inkscape:connector-curvature="0" style="fill:url(#path50_00000092440554747605287850000005312941652926142344_);" d="
						M179.1,298.2c0-69,56-125,124.9-125l0,0c68.8,0,124.5,55.4,125.1,124l0,0v2c-0.5,68.6-56.3,124-125.1,124l0,0
						C235.1,423.2,179.1,367.2,179.1,298.2"/>
				</g>
			</g>
		</g>
	</g>
	
		<g id="g52" inkscape:export-filename="C:\Users\suitedoalex\sites\lg-logo-14.png" inkscape:export-xdpi="6.3443303" inkscape:export-ydpi="6.3443303">
		<g id="g54">
			<g id="g60">
				<g id="g62">
					
						<linearGradient id="path74_00000137820328309810975570000013575305375046834612_" gradientUnits="userSpaceOnUse" x1="925.2827" y1="-23.1617" x2="926.2827" y2="-23.1617" gradientTransform="matrix(87.921 -241.5609 -241.5609 -87.921 -86693.8359 221882.75)">
						<stop  offset="0" style="stop-color:#F38895"/>
						<stop  offset="0.5476" style="stop-color:#BF0C3F"/>
						<stop  offset="0.8011" style="stop-color:#BF0C3F"/>
						<stop  offset="1" style="stop-color:#BF0C3F"/>
					</linearGradient>
					
						<path id="path74" inkscape:connector-curvature="0" style="fill:url(#path74_00000137820328309810975570000013575305375046834612_);" d="
						M219.5,382.8c-41.8-41.8-46-105.4-9.3-142.1l0,0c36.7-36.7,100.3-32.5,142,9.3l0,0c41.8,41.9,46.1,105.5,9.4,142.2l0,0
						c-16.7,16.7-39.1,25-62.5,25l0,0C271.4,417.2,242.2,405.5,219.5,382.8"/>
				</g>
			</g>
		</g>
	</g>
	
		<g id="g76" inkscape:export-filename="C:\Users\suitedoalex\sites\lg-logo-14.png" inkscape:export-xdpi="6.3443303" inkscape:export-ydpi="6.3443303">
		<g id="g78">
			<g id="g84">
				<g id="g86">
					
						<linearGradient id="path96_00000129188626489910102870000004543043647021213373_" gradientUnits="userSpaceOnUse" x1="924.2915" y1="-23.9098" x2="925.2915" y2="-23.9098" gradientTransform="matrix(201.6644 -201.6644 -201.6644 -201.6644 -190997.8125 181937.1875)">
						<stop  offset="0" style="stop-color:#CD425C"/>
						<stop  offset="0.3299" style="stop-color:#900531"/>
						<stop  offset="1" style="stop-color:#900531"/>
					</linearGradient>
					
						<path id="path96" inkscape:connector-curvature="0" style="fill:url(#path96_00000129188626489910102870000004543043647021213373_);" d="
						M305.2,403.4l-2.6-0.9c-58.7,0-102.7-49.1-102.7-107.5l0,0c0-28.3,11.1-54.9,31.2-74.9l0,0c20.1-20,46.7-30.1,75.2-30.1l0,0
						c28.6,0,55.4,10.8,75.5,30.8l0,0c20.1,20,31.2,46.6,31.2,74.9l0,0v6.1l-2.5,2.2l-77.3,0v-12.4l1.9-2.6c0,0,0.2-0.3,0.7-0.3l0,0
						h58.9h5.7h0h0.1c-3.3-48.9-44.6-87.2-93.9-87.2l0,0c-25.1,0-48.7,9.8-66.5,27.4l0,0c-17.7,17.7-27.5,41.1-27.5,66.1l0,0
						c0,25,9.2,49,27,66.6l0,0c17.9,17.6,40.3,26.9,67.2,27.5l0,0l5.1,0.1h0.6c0.4,0,0.7,0,0.7,0.8l0,0v10.1c0,0.7-0.3,1.1-0.3,1.1
						l0,0l-2.3,2.9L305.2,403.4z M301.2,351.1h-0.5V351l-0.8-0.2l0.8-1.2l0-105.6l-3.1-1.8l2.4-1.7c0.2-0.1,0.9-0.5,1.7-0.5l0,0
						h34.8c0.4,0.1,0.7,0.3,0.7,0.8l0,0v9.7c0,0.7-0.1,1-0.3,1.2l0,0l-1.8,2.9h-22.7l0.1,96.2c0,0.5-0.2,0.8-0.2,0.8l0,0l-1.7,2.9
						L301.2,351.1z M248.9,336.2c0-9.2,7.5-16.7,16.8-16.7l0,0c9.3,0,16.8,7.5,16.8,16.7l0,0c0,9.2-7.5,16.7-16.8,16.7l0,0
						C256.4,352.9,248.9,345.4,248.9,336.2"/>
				</g>
			</g>
		</g>
	</g>
	
		<g id="g98" inkscape:export-filename="C:\Users\suitedoalex\sites\lg-logo-14.png" inkscape:export-xdpi="6.3443303" inkscape:export-ydpi="6.3443303">
		<g>
			<defs>
				<rect id="SVGID_00000122715063808579662360000016241989766107866251_" x="-98.1" y="-99.2" width="1122.5" height="793.7"/>
			</defs>
			<clipPath id="SVGID_00000130608701353989949510000003624220164016062111_">
				<use xlink:href="#SVGID_00000122715063808579662360000016241989766107866251_"  style="overflow:visible;"/>
			</clipPath>
			<g id="g100" style="clip-path:url(#SVGID_00000130608701353989949510000003624220164016062111_);">
				<g id="g106" transform="translate(257.9141,244.5908)">
					<path id="path108" inkscape:connector-curvature="0" class="st6" d="M42.2,0l-2.5-2.4h37.5l-2.4,2.5L42.2,0z"/>
				</g>
				<g id="g110" transform="translate(290.4165,252.127)">
					<path id="path112" inkscape:connector-curvature="0" class="st7" d="M42.2,0l2.4,2.4H20.1L17.2,0H42.2z"/>
				</g>
				<g id="g114" transform="translate(268.3218,354.333)">
					<path id="path116" inkscape:connector-curvature="0" class="st8" d="M42.2,0h-13l2.4-2.3l7.7,0L42.2,0z"/>
				</g>
			</g>
		</g>
	</g>
	
		<g id="g118" inkscape:export-filename="C:\Users\suitedoalex\sites\lg-logo-14.png" inkscape:export-xdpi="6.3443303" inkscape:export-ydpi="6.3443303">
		<g id="g120">
			<g id="g126">
				<g id="g128">
					
						<linearGradient id="path138_00000163787445144312308230000001178616520273669004_" gradientUnits="userSpaceOnUse" x1="723.9927" y1="4.5725" x2="724.9926" y2="4.5725" gradientTransform="matrix(3.6992 0 0 -3.6992 -2370.4192 320.2368)">
						<stop  offset="0" style="stop-color:#B4BDC3"/>
						<stop  offset="0.8443" style="stop-color:#333940"/>
						<stop  offset="1" style="stop-color:#333940"/>
					</linearGradient>
					
						<path id="path138" inkscape:connector-curvature="0" style="fill:url(#path138_00000163787445144312308230000001178616520273669004_);" d="
						M307.8,352l0.1-99.7l2.7,2.2v99.8L307.8,352z"/>
				</g>
			</g>
		</g>
	</g>
	
		<g id="g140" inkscape:export-filename="C:\Users\suitedoalex\sites\lg-logo-14.png" inkscape:export-xdpi="6.3443303" inkscape:export-ydpi="6.3443303">
		<g id="g142">
			<g id="g148">
				<g id="g150">
					
						<linearGradient id="path160_00000062912060687262556900000000749207923670235823_" gradientUnits="userSpaceOnUse" x1="696.5036" y1="8.7413" x2="697.5032" y2="8.7413" gradientTransform="matrix(3.2559 0 0 -3.2559 -1935.0603 276.7917)">
						<stop  offset="0" style="stop-color:#B3BBC1"/>
						<stop  offset="0.8443" style="stop-color:#2A3236"/>
						<stop  offset="1" style="stop-color:#2A3236"/>
					</linearGradient>
					
						<path id="path160" inkscape:connector-curvature="0" style="fill:url(#path160_00000062912060687262556900000000749207923670235823_);" d="
						M332.7,252.1v-7.5l2.4-2.5v12.3L332.7,252.1z"/>
				</g>
			</g>
		</g>
	</g>
	
		<g id="g162" inkscape:export-filename="C:\Users\suitedoalex\sites\lg-logo-14.png" inkscape:export-xdpi="6.3443303" inkscape:export-ydpi="6.3443303">
		<g>
			<defs>
				<rect id="SVGID_00000108987526509727729620000012126061413815858062_" x="-98.1" y="-99.2" width="1122.5" height="793.7"/>
			</defs>
			<clipPath id="SVGID_00000173880876679948764640000018166531799782625934_">
				<use xlink:href="#SVGID_00000108987526509727729620000012126061413815858062_"  style="overflow:visible;"/>
			</clipPath>
			<g id="g164" style="clip-path:url(#SVGID_00000173880876679948764640000018166531799782625934_);">
				<g id="g170" transform="translate(255.3696,354.333)">
					<path id="path172" inkscape:connector-curvature="0" class="st12" d="M42.2,0v-112.2l2.5,2.4L44.7-2.3L42.2,0z"/>
				</g>
			</g>
		</g>
	</g>
	
		<g id="g174" inkscape:export-filename="C:\Users\suitedoalex\sites\lg-logo-14.png" inkscape:export-xdpi="6.3443303" inkscape:export-ydpi="6.3443303">
		<g id="g176">
			<g id="g182">
				<g id="g184">
					
						<linearGradient id="path192_00000138541818341431108810000010161597123540911240_" gradientUnits="userSpaceOnUse" x1="915.5539" y1="-40.0362" x2="916.5539" y2="-40.0362" gradientTransform="matrix(30.728 -30.728 30.728 30.728 -26650.3223 29713.0391)">
						<stop  offset="0" style="stop-color:#ABBAC2"/>
						<stop  offset="1" style="stop-color:#262A30"/>
					</linearGradient>
					
						<path id="path192" inkscape:connector-curvature="0" style="fill:url(#path192_00000138541818341431108810000010161597123540911240_);" d="
						M247.8,338.1c0-9,7.3-16.3,16.3-16.3l0,0c9,0,16.3,7.3,16.3,16.3l0,0c0,9-7.3,16.3-16.3,16.3l0,0
						C255.1,354.4,247.8,347.1,247.8,338.1 M250.3,338.1c0,7.7,6.2,13.9,13.9,13.9l0,0c7.6,0,13.9-6.2,13.9-13.9l0,0
						c0-7.6-6.2-13.8-13.9-13.8l0,0C256.5,324.3,250.3,330.4,250.3,338.1"/>
				</g>
			</g>
		</g>
	</g>
	
		<g id="g194" inkscape:export-filename="C:\Users\suitedoalex\sites\lg-logo-14.png" inkscape:export-xdpi="6.3443303" inkscape:export-ydpi="6.3443303">
		<g>
			<defs>
				<rect id="SVGID_00000090983611463554960400000011692917940788497340_" x="-98.1" y="-99.2" width="1122.5" height="793.7"/>
			</defs>
			<clipPath id="SVGID_00000067193788179181042130000009137047876795555748_">
				<use xlink:href="#SVGID_00000090983611463554960400000011692917940788497340_"  style="overflow:visible;"/>
			</clipPath>
			<g id="g196" style="clip-path:url(#SVGID_00000067193788179181042130000009137047876795555748_);">
				<g id="g202" transform="translate(357.5703,294.3545)">
					<path id="path204" inkscape:connector-curvature="0" class="st15" d="M42.2,0l-64.8,0.1L-25-2.5h64.7L41-1.1L42.2,0z"/>
				</g>
				<g id="g206" transform="translate(268.0928,391.6338)">
					<path id="path208" inkscape:connector-curvature="0" class="st16" d="M42.2,0"/>
				</g>
				<g id="g210" transform="translate(292.7832,301.7373)">
					<path id="path212" inkscape:connector-curvature="0" class="st17" d="M42.2,0l72.5,0.1l2.5,2.5l-77.3,0L42.2,0z"/>
				</g>
			</g>
		</g>
	</g>
	
		<g id="g214" inkscape:export-filename="C:\Users\suitedoalex\sites\lg-logo-14.png" inkscape:export-xdpi="6.3443303" inkscape:export-ydpi="6.3443303">
		<g id="g216">
			<g id="g222">
				<g id="g224">
					
						<linearGradient id="path232_00000178164002917460063780000007411846396137159610_" gradientUnits="userSpaceOnUse" x1="924.2892" y1="-28.1776" x2="925.2892" y2="-28.1776" gradientTransform="matrix(201.3616 -201.3616 201.3616 201.3616 -180222.9375 192154.1719)">
						<stop  offset="0" style="stop-color:#B4BDC3"/>
						<stop  offset="1" style="stop-color:#3E454D"/>
					</linearGradient>
					
						<path id="path232" inkscape:connector-curvature="0" style="fill:url(#path232_00000178164002917460063780000007411846396137159610_);" d="
						M198.1,298.2c0-28.3,11-54.9,31-74.9l0,0c20-20,46.5-31,74.8-31l0,0c28.4,0,55,11,75,31l0,0c20,20,31,46.6,31,74.9l0,0v6.1
						l-2.5-2.5v-3.6c0-27.6-10.7-53.6-30.3-73.2l0,0c-19.5-19.6-45.5-30.3-73.3-30.3l0,0c-27.6,0-53.6,10.8-73.1,30.3l0,0
						c-19.5,19.6-30.3,45.6-30.3,73.2l0,0c0,57.1,46.4,103.5,103.4,103.5l0,0l4,0l2.4,2.3l-6.4,0.1
						C245.6,404.2,198.1,356.6,198.1,298.2"/>
				</g>
			</g>
		</g>
	</g>
	
		<g id="g234" inkscape:export-filename="C:\Users\suitedoalex\sites\lg-logo-14.png" inkscape:export-xdpi="6.3443303" inkscape:export-ydpi="6.3443303">
		<g id="g236">
			<g id="g242">
				<g id="g244">
					
						<linearGradient id="path252_00000028286729889636886620000010140954727770546343_" gradientUnits="userSpaceOnUse" x1="928.7836" y1="-25.5988" x2="929.7836" y2="-25.5988" gradientTransform="matrix(-255.6215 0 0 -255.6215 237816.9219 -6245.4253)">
						<stop  offset="0" style="stop-color:#B4BDC3"/>
						<stop  offset="1" style="stop-color:#485159"/>
					</linearGradient>
					
						<path id="path252" inkscape:connector-curvature="0" style="fill:url(#path252_00000028286729889636886620000010140954727770546343_);" d="
						M302.6,394.1c-25-0.4-48.6-10.3-66.4-28.1l0,0c-18.1-18.1-28-42.2-28-67.9l0,0c0-25.6,10-49.7,28-67.8l0,0
						c17.9-17.8,41.5-27.8,66.6-28.1l0,0h2.5c49.7,0.6,91.1,39.7,94.5,89.5l0,0l0.1,2.6l-1.2-1.1l-1.3-1.3
						C394,243,353,204.7,304,204.7l0,0c-25,0-48.4,9.8-66.1,27.4l0,0c-17.6,17.7-27.3,41.1-27.3,66.1l0,0c0,25,9.7,48.5,27.3,66.1
						l0,0c17.7,17.6,41.2,27.3,66.1,27.3l0,0l6.3-0.1l-2.4,2.4l-2.7,0.1L302.6,394.1z"/>
				</g>
			</g>
		</g>
	</g>
	
		<g id="g254" inkscape:export-filename="C:\Users\suitedoalex\sites\lg-logo-14.png" inkscape:export-xdpi="6.3443303" inkscape:export-ydpi="6.3443303">
		<g>
			<defs>
				<rect id="SVGID_00000000215409538571308160000002876190814996555966_" x="-98.1" y="-99.2" width="1122.5" height="793.7"/>
			</defs>
			<clipPath id="SVGID_00000144332976538999735470000004698940460156444603_">
				<use xlink:href="#SVGID_00000000215409538571308160000002876190814996555966_"  style="overflow:visible;"/>
			</clipPath>
			<g id="g256" style="clip-path:url(#SVGID_00000144332976538999735470000004698940460156444603_);">
				<g id="g262" transform="translate(292.7832,301.7373)">
					<path id="path264" inkscape:connector-curvature="0" class="st12" d="M42.2,0l-2.4,2.6V-9.8l2.4,2.5V0z"/>
				</g>
			</g>
		</g>
	</g>
	
		<g id="g266" inkscape:export-filename="C:\Users\suitedoalex\sites\lg-logo-14.png" inkscape:export-xdpi="6.3443303" inkscape:export-ydpi="6.3443303">
		<g id="g268">
			<g id="g274">
				<g id="g276">
					
						<linearGradient id="path286_00000116956326424863060330000009949369316324658366_" gradientUnits="userSpaceOnUse" x1="694.3275" y1="9.0715" x2="695.3275" y2="9.0715" gradientTransform="matrix(3.2253 0 0 -3.2253 -1931.4725 427.1271)">
						<stop  offset="0" style="stop-color:#B3BBC1"/>
						<stop  offset="0.8443" style="stop-color:#2A3236"/>
						<stop  offset="1" style="stop-color:#2A3236"/>
					</linearGradient>
					
						<path id="path286" inkscape:connector-curvature="0" style="fill:url(#path286_00000116956326424863060330000009949369316324658366_);" d="
						M307.9,401.8v-7.7l2.4-2.4v12.5L307.9,401.8z"/>
				</g>
			</g>
		</g>
	</g>
	
		<g id="g288" inkscape:export-filename="C:\Users\suitedoalex\sites\lg-logo-14.png" inkscape:export-xdpi="6.3443303" inkscape:export-ydpi="6.3443303">
		<g id="g290">
			<g id="g296">
				<g id="g298">
					
						<radialGradient id="path310_00000061453455932868516340000009011772627683115434_" cx="922.3609" cy="-25.5111" r="1" gradientTransform="matrix(213.2794 0 0 -213.2794 -196458.7344 -5098.4863)" gradientUnits="userSpaceOnUse">
						<stop  offset="0" style="stop-color:#FFFFFF"/>
						<stop  offset="0.35" style="stop-color:#FFFFFF"/>
						<stop  offset="0.6665" style="stop-color:#FFFFFF"/>
						<stop  offset="1" style="stop-color:#C0CCD2"/>
					</radialGradient>
					
						<path id="path310" inkscape:connector-curvature="0" style="fill:url(#path310_00000061453455932868516340000009011772627683115434_);" d="
						M302.6,402.8c-57-0.7-103.2-47.4-103.2-104.6l0,0c0-28,10.9-54.2,30.6-74l0,0c19.7-19.8,46-30.6,73.9-30.6l0,0
						c28,0,54.3,10.9,74,30.6l0,0c19.8,19.8,30.6,46,30.6,74l0,0v4.8l-4.1,0h-70.5v-9.7h64.7c0-0.2,0-1.2,0-1.4l0,0
						c-3.4-49.3-44.5-88.5-94.6-88.5l0,0c-25.3,0-49.1,9.9-67.1,27.8l0,0c-17.9,17.9-27.7,41.7-27.7,67l0,0
						c0,25.4,9.9,49.2,27.7,67.1l0,0c18,17.9,41.8,27.7,67.1,27.7l0,0c1.1,0,3.8,0,5,0l0,0v9.8c-1,0-2.6,0-3.9,0.1l0,0L302.6,402.8z
						 M299,353V243.5h34.8v9.8H309V353H299z"/>
				</g>
			</g>
		</g>
	</g>
	
		<g id="g312" inkscape:export-filename="C:\Users\suitedoalex\sites\lg-logo-14.png" inkscape:export-xdpi="6.3443303" inkscape:export-ydpi="6.3443303">
		<g id="g314">
			<g id="g320">
				<g id="g322">
					
						<radialGradient id="path334_00000033331394341479678280000006907537265452619922_" cx="901.884" cy="-22.4057" r="1" gradientTransform="matrix(31.1433 0 0 -31.1433 -27829.7344 -354.1764)" gradientUnits="userSpaceOnUse">
						<stop  offset="0" style="stop-color:#FFFFFF"/>
						<stop  offset="0.35" style="stop-color:#FFFFFF"/>
						<stop  offset="0.6655" style="stop-color:#FFFFFF"/>
						<stop  offset="1" style="stop-color:#D0DADF"/>
					</radialGradient>
					
						<path id="path334" inkscape:connector-curvature="0" style="fill:url(#path334_00000033331394341479678280000006907537265452619922_);" d="
						M249.1,338.1c0-8.3,6.8-14.9,15-14.9l0,0c8.2,0,15,6.7,15,14.9l0,0c0,8.3-6.8,15-15,15l0,0
						C255.8,353.1,249.1,346.4,249.1,338.1"/>
				</g>
			</g>
		</g>
	</g>
	
		<g id="g336" inkscape:export-filename="C:\Users\suitedoalex\sites\lg-logo-14.png" inkscape:export-xdpi="6.3443303" inkscape:export-ydpi="6.3443303">
		<g>
			<defs>
				<rect id="SVGID_00000109719254677120380190000014906050662728135615_" x="-98.1" y="-99.2" width="1122.5" height="793.7"/>
			</defs>
			<clipPath id="SVGID_00000036939736178984656110000017378555021104066723_">
				<use xlink:href="#SVGID_00000109719254677120380190000014906050662728135615_"  style="overflow:visible;"/>
			</clipPath>
			<g id="g338" style="clip-path:url(#SVGID_00000036939736178984656110000017378555021104066723_);">
				<g id="g344" transform="translate(224.5518,350.3809)">
					<path id="path346" inkscape:connector-curvature="0" class="st25" d="M42.2,0c3.4,0,6.6-1.2,9.1-3.2c-2.7,3.6-7,5.9-11.8,5.9
						c-8.3,0-15-6.7-15-15c0-4.8,2.3-9,5.8-11.7c-1.9,2.5-3.1,5.6-3.1,9C27.2-6.7,34,0,42.2,0"/>
				</g>
				<g id="g348" transform="translate(266.7168,402.7842)">
					<path id="path350" inkscape:connector-curvature="0" class="st25" d="M42.2,0c-1.3,0-3.8,0.1-5.1,0.1
						c-57.6,0-104.5-47-104.5-104.6c0-28,10.9-54.2,30.6-74c0.6-0.6,1.3-1.2,1.9-1.8c-18.6,19.6-28.9,45-28.9,72.2
						C-63.7-50.7-22.9-2.9,42.2,0"/>
				</g>
				<g id="g352" transform="translate(266.7168,253.2412)">
					<path id="path354" inkscape:connector-curvature="0" class="st25" d="M42.2,0c0,0,7.2-2.1,24.8-2.1V0H42.2z"/>
				</g>
				<g id="g356" transform="translate(266.7168,349.9297)">
					<path id="path358" inkscape:connector-curvature="0" class="st25" d="M42.2,0v3.1h-10v-109.5c0,0,3.1,16.7,3.1,106.5L42.2,0z"
						/>
				</g>
				<g id="g360" transform="translate(366.3003,302.9736)">
					<path id="path362" inkscape:connector-curvature="0" class="st25" d="M42.2,0l-74.7,0v-9.7h2.7v7C35.3-2.7,42.2,0,42.2,0"/>
				</g>
				<g id="g364" transform="translate(356.3774,293.2393)">
					<path id="path366" inkscape:connector-curvature="0" class="st25" d="M42.2,0c0-0.2,0-1.3-0.1-1.4
						C38.9-50.7-2.3-89.9-52.4-89.9c-25.3,0-49.1,9.9-67.1,27.8c-11.7,11.7-19.9,25.9-24.2,41.5C-132.5-61.4-95.2-91-50.8-91
						c47.6,0,91.5,37.3,94.3,91L42.2,0z"/>
				</g>
			</g>
		</g>
	</g>
</g>
</svg>
