<?xml version="1.0" encoding="UTF-8"?>
<svg xmlns="http://www.w3.org/2000/svg" xmlns:xlink="http://www.w3.org/1999/xlink" width="517.7pt" height="77.8pt" viewBox="0 0 517.7 77.8" version="1.1">
<defs>
<clipPath id="clip1">
  <path d="M 187 11 L 517.699219 11 L 517.699219 77.800781 L 187 77.800781 Z M 187 11 "/>
</clipPath>
<clipPath id="clip2">
  <path d="M 0 0 L 207 0 L 207 77.800781 L 0 77.800781 Z M 0 0 "/>
</clipPath>
</defs>
<g id="surface1">
<g clip-path="url(#clip1)" clip-rule="nonzero">
<path style=" stroke:none;fill-rule:evenodd;fill:rgb(0%,0%,0%);fill-opacity:1;" d="M 512.574219 15.8125 L 512.578125 15.8125 C 513.992188 15.816406 515.277344 16.394531 516.210938 17.328125 C 517.140625 18.257813 517.714844 19.539063 517.71875 20.957031 L 517.71875 20.960938 C 517.714844 22.371094 517.136719 23.660156 516.203125 24.589844 C 515.273438 25.519531 513.992188 26.097656 512.578125 26.097656 L 512.570313 26.097656 C 511.15625 26.097656 509.871094 25.519531 508.941406 24.589844 C 508.007813 23.65625 507.433594 22.378906 507.429688 20.964844 L 507.429688 20.957031 C 507.433594 19.539063 508.011719 18.253906 508.945313 17.320313 C 509.878906 16.390625 511.15625 15.8125 512.570313 15.8125 Z M 512.578125 16.878906 L 512.570313 16.878906 C 511.449219 16.878906 510.429688 17.339844 509.691406 18.078125 C 508.953125 18.8125 508.496094 19.835938 508.496094 20.957031 L 508.496094 20.964844 C 508.496094 22.085938 508.960938 23.101563 509.691406 23.839844 C 510.429688 24.582031 511.449219 25.035156 512.574219 25.035156 L 512.578125 25.035156 C 513.703125 25.035156 514.71875 24.582031 515.460938 23.839844 C 516.195313 23.101563 516.652344 22.085938 516.652344 20.964844 L 516.652344 20.957031 C 516.652344 19.835938 516.195313 18.8125 515.460938 18.078125 C 514.71875 17.339844 513.699219 16.878906 512.578125 16.878906 Z M 510.425781 23.683594 L 510.425781 18.230469 L 512.746094 18.230469 C 513.328125 18.230469 513.753906 18.28125 514.015625 18.378906 C 514.28125 18.476563 514.492188 18.648438 514.652344 18.898438 C 514.808594 19.152344 514.890625 19.4375 514.890625 19.757813 C 514.890625 20.167969 514.769531 20.507813 514.527344 20.773438 C 514.289063 21.039063 513.925781 21.210938 513.449219 21.277344 C 513.6875 21.414063 513.882813 21.566406 514.039063 21.734375 C 514.195313 21.902344 514.402344 22.195313 514.664063 22.621094 L 515.335938 23.683594 L 514.015625 23.683594 L 513.21875 22.496094 C 512.933594 22.070313 512.742188 21.804688 512.636719 21.695313 C 512.535156 21.589844 512.425781 21.507813 512.308594 21.46875 C 512.191406 21.429688 512.003906 21.40625 511.753906 21.40625 L 511.53125 21.40625 L 511.53125 23.683594 Z M 511.53125 20.535156 L 512.34375 20.535156 C 512.871094 20.535156 513.203125 20.515625 513.339844 20.46875 C 513.464844 20.425781 513.566406 20.347656 513.644531 20.238281 C 513.714844 20.128906 513.753906 19.992188 513.753906 19.832031 C 513.753906 19.644531 513.710938 19.503906 513.609375 19.386719 C 513.511719 19.273438 513.371094 19.207031 513.191406 19.171875 C 513.101563 19.160156 512.839844 19.152344 512.386719 19.152344 L 511.53125 19.152344 Z M 310.910156 20.792969 L 318.65625 11.761719 L 333.339844 11.757813 L 325.59375 20.789063 Z M 274.996094 62.65625 L 306.621094 25.792969 L 321.304688 25.789063 L 289.679688 62.652344 Z M 375.726563 65.058594 L 391.339844 66.40625 C 390.507813 67.710938 390.386719 68.59375 390.96875 69.082031 C 391.761719 69.78125 393.679688 70.125 396.65625 70.125 C 400.496094 70.125 403.691406 69.742188 406.28125 68.96875 C 408.003906 68.460938 409.683594 67.644531 411.316406 66.507813 C 412.460938 65.703125 413.96875 64.210938 415.839844 62.027344 L 420.453125 56.648438 C 412.652344 60.628906 405.394531 62.621094 398.703125 62.621094 C 391.246094 62.628906 387.140625 60.527344 386.378906 56.347656 C 385.8125 53.03125 387.628906 48.921875 391.855469 43.992188 C 397.164063 37.804688 403.460938 33.089844 410.742188 29.816406 C 418.015625 26.558594 424.984375 24.921875 431.640625 24.917969 C 438.492188 24.917969 442.445313 26.917969 443.46875 30.921875 L 447.902344 25.757813 L 461.640625 25.753906 L 433.257813 58.839844 C 429.527344 63.183594 426.210938 66.429688 423.265625 68.585938 C 420.347656 70.742188 417.386719 72.425781 414.386719 73.664063 C 411.378906 74.882813 407.945313 75.839844 404.101563 76.542969 C 400.246094 77.230469 395.820313 77.585938 390.839844 77.585938 C 381.421875 77.589844 375.675781 76.511719 373.578125 74.378906 C 371.472656 72.238281 371.84375 69.523438 374.65625 66.242188 C 374.941406 65.910156 375.296875 65.519531 375.726563 65.058594 Z M 407.390625 43.429688 C 404.039063 47.339844 402.71875 50.210938 403.449219 52.019531 C 404.175781 53.835938 406.195313 54.742188 409.546875 54.742188 C 413.132813 54.742188 416.96875 53.804688 421.046875 51.941406 C 425.105469 50.085938 428.722656 47.320313 431.863281 43.660156 C 435.136719 39.84375 436.371094 37.011719 435.589844 35.164063 C 434.824219 33.304688 432.621094 32.382813 429.003906 32.382813 C 425.464844 32.382813 421.796875 33.296875 417.953125 35.109375 C 414.105469 36.9375 410.59375 39.703125 407.390625 43.429688 Z M 477.828125 50.878906 L 491.089844 52.492188 C 486.132813 56.0625 480.84375 58.773438 475.179688 60.636719 C 469.523438 62.507813 463.648438 63.433594 457.546875 63.4375 C 447.894531 63.4375 442.546875 61.355469 441.503906 57.160156 C 440.722656 53.808594 442.523438 49.566406 446.90625 44.464844 C 452.152344 38.347656 458.671875 33.558594 466.453125 30.097656 C 474.222656 26.636719 481.789063 24.90625 489.140625 24.902344 C 497.402344 24.902344 502.359375 26.714844 504.027344 30.339844 C 505.679688 33.964844 503.210938 39.507813 496.59375 46.984375 L 459.789063 46.992188 C 457.414063 49.882813 456.660156 52.136719 457.554688 53.734375 C 458.4375 55.34375 460.589844 56.152344 463.960938 56.148438 C 466.257813 56.148438 468.546875 55.734375 470.824219 54.902344 C 473.113281 54.0625 475.464844 52.722656 477.828125 50.878906 Z M 487.128906 41.015625 C 489.449219 38.183594 490.199219 36.039063 489.378906 34.570313 C 488.546875 33.101563 486.628906 32.367188 483.628906 32.371094 C 480.421875 32.371094 477.105469 33.152344 473.6875 34.707031 C 470.277344 36.246094 467.433594 38.355469 465.179688 41.019531 Z M 219.253906 25.816406 L 232.796875 25.8125 L 228.484375 30.839844 C 236.671875 26.921875 244.128906 24.96875 250.824219 24.964844 C 254.371094 24.964844 257.046875 25.453125 258.8125 26.421875 C 260.601563 27.390625 261.484375 28.859375 261.472656 30.832031 C 265.589844 28.859375 269.488281 27.390625 273.140625 26.417969 C 276.796875 25.445313 280.226563 24.960938 283.4375 24.960938 C 287.503906 24.960938 290.488281 25.511719 292.359375 26.613281 C 294.246094 27.707031 294.960938 29.328125 294.527344 31.445313 C 294.191406 33.023438 292.507813 35.570313 289.488281 39.089844 L 269.269531 62.65625 L 254.589844 62.660156 L 272.660156 41.59375 C 275.800781 37.929688 277.324219 35.578125 277.222656 34.507813 C 277.058594 33.121094 275.570313 32.421875 272.753906 32.421875 C 270.679688 32.425781 268.398438 32.839844 265.855469 33.679688 C 263.34375 34.511719 260.992188 35.730469 258.808594 37.34375 C 256.621094 38.960938 254.035156 41.492188 251.054688 44.964844 L 235.867188 62.664063 L 221.183594 62.667969 L 238.515625 42.46875 C 241.597656 38.878906 243.3125 36.566406 243.691406 35.523438 C 244.066406 34.480469 243.90625 33.714844 243.257813 33.203125 C 242.589844 32.691406 241.335938 32.433594 239.441406 32.433594 C 237.171875 32.433594 234.796875 32.839844 232.289063 33.65625 C 229.777344 34.464844 227.46875 35.632813 225.378906 37.164063 C 223.277344 38.691406 220.71875 41.214844 217.679688 44.757813 L 202.308594 62.671875 L 187.628906 62.679688 Z M 361.503906 37.019531 C 354.835938 34.503906 345.347656 32.265625 338.34375 34.828125 C 336.257813 35.570313 333.984375 36.933594 331.476563 38.902344 C 328.96875 40.867188 325.019531 44.992188 319.640625 51.257813 L 309.871094 62.644531 L 295.1875 62.648438 L 326.816406 25.789063 L 340.445313 25.785156 L 335.953125 31.023438 C 340.414063 28.542969 343.921875 26.910156 346.449219 26.128906 C 348.992188 25.34375 351.445313 24.941406 353.816406 24.9375 C 357.171875 24.9375 359.855469 25.554688 361.902344 26.785156 L 355.4375 31.425781 C 358.214844 29.808594 361.089844 28.503906 364.0625 27.507813 C 369.199219 25.800781 375.367188 24.933594 382.578125 24.933594 C 389.140625 24.929688 393.566406 25.453125 395.890625 26.480469 C 398.203125 27.511719 399.347656 28.8125 399.289063 30.402344 C 399.230469 31.988281 397.398438 34.890625 393.757813 39.132813 L 383.828125 50.519531 C 381.054688 53.753906 379.234375 56.148438 378.394531 57.6875 C 377.546875 59.21875 377.015625 60.878906 376.796875 62.628906 L 362.253906 62.632813 C 362.4375 61.980469 362.78125 61.023438 363.3125 59.753906 C 363.585938 59.171875 363.726563 58.792969 363.785156 58.605469 C 359.878906 60.226563 356.164063 61.4375 352.605469 62.253906 C 349.058594 63.0625 345.664063 63.464844 342.421875 63.464844 C 336.710938 63.46875 333.078125 62.4375 331.550781 60.390625 C 330.019531 58.332031 330.617188 55.722656 333.320313 52.570313 C 335.097656 50.496094 337.445313 48.636719 340.347656 47.003906 C 343.253906 45.367188 346.421875 44.121094 349.855469 43.257813 C 353.296875 42.390625 357.851563 41.628906 363.496094 40.976563 C 371.078125 40.121094 376.535156 39.316406 379.804688 38.585938 L 380.636719 37.609375 C 382.253906 35.722656 382.695313 34.398438 381.996094 33.589844 C 381.285156 32.796875 379.007813 32.398438 375.136719 32.398438 C 372.511719 32.398438 370.183594 32.742188 368.132813 33.429688 C 366.089844 34.105469 363.886719 35.300781 361.503906 37.023438 Z M 374.355469 44.929688 C 372.128906 45.347656 368.71875 45.84375 364.136719 46.425781 C 359.570313 47.007813 356.425781 47.582031 354.6875 48.128906 C 351.996094 49.035156 350.054688 50.175781 348.867188 51.558594 C 347.6875 52.933594 347.449219 54.109375 348.128906 55.101563 C 348.808594 56.097656 350.328125 56.59375 352.699219 56.59375 C 355.359375 56.59375 358.378906 56.011719 361.769531 54.863281 C 364.304688 53.984375 366.390625 52.90625 368.039063 51.628906 C 369.144531 50.796875 370.683594 49.214844 372.6875 46.878906 Z M 374.355469 44.929688 "/>
</g>
<g clip-path="url(#clip2)" clip-rule="nonzero">
<path style=" stroke:none;fill-rule:evenodd;fill:rgb(100%,0%,0%);fill-opacity:1;" d="M 109.515625 -0.00390625 L 50.421875 23.503906 L 0.0859375 77.796875 L 59.171875 54.292969 Z M 112.738281 -0.00390625 L 128.238281 23.503906 L 187.335938 -0.00390625 L 136.988281 54.292969 L 77.898438 77.796875 L 62.394531 54.292969 Z M 190.554688 -0.00390625 L 206.054688 23.503906 L 155.714844 77.796875 L 140.214844 54.292969 Z M 190.554688 -0.00390625 "/>
</g>
</g>
</svg>
