<?xml version="1.0" encoding="utf-8"?>
<!-- Generator: Adobe Illustrator 26.0.0, SVG Export Plug-In . SVG Version: 6.00 Build 0)  -->
<svg version="1.1" id="Layer_1" xmlns="http://www.w3.org/2000/svg" xmlns:xlink="http://www.w3.org/1999/xlink" x="0px" y="0px"
	 viewBox="0 0 244 105" style="enable-background:new 0 0 244 105;" xml:space="preserve">
<style type="text/css">
	.st0{fill:#00569D;}
	.st1{fill:#FFFFFF;}
	.st2{fill:none;stroke:#FFFFFF;stroke-width:0.976;}
	.st3{fill:none;stroke:#FFFFFF;stroke-width:0.85;}
	.st4{font-family:'Helvetica';}
	.st5{font-size:10.906px;}
</style>
<g>
	<g>
		<g>
			<rect x="25.1" y="35.2" class="st0" width="44.9" height="44.9"/>
			<path class="st0" d="M47.6,57.7"/>
			<path class="st1" d="M41.9,56.3"/>
			<path class="st1" d="M42,56.3"/>
			<path d="M42,56.3"/>
			<path class="st1" d="M41.7,63.2l3.4,1.9l0.8-1.4l-4.2-2.4v-8.3l6.9,4l0,5.3h1.6l0-4.4l3.4,2l1.2-2l-3.5-2l3.9-2.2l-0.8-1.4
				L49.8,55l-6.9-4l7-4l4.6,2.7l0.8-1.4l-3.8-2.2l3.4-2L53.7,42l-3.4,2l0-4.4h-1.6l0,5.4l-6.9,4v-8.2l4.6-2.7l-0.8-1.4l-3.8,2.2
				l0-3.7h-2.4l0,7.4c-1,0.1-2,0.5-2.8,0.9l-4.3-5.8L30.3,39l4.3,5.8c-0.7,0.7-1.4,1.5-1.8,2.5L25.8,45l-0.7,2.3l6.9,2.3
				c-0.1,0.5-0.1,1-0.1,1.5c0,0.5,0.1,1,0.1,1.5l-6.8,2.2L26,57l6.8-2.2c0.4,0.9,1,1.7,1.8,2.4l-4.2,5.9l1.9,1.4l4.2-5.9
				c0.9,0.5,1.8,0.8,2.9,0.9l0,7.4h2.4L41.7,63.2"/>
			<path class="st2" d="M41.7,63.2l3.4,1.9l0.8-1.4l-4.2-2.4v-8.3l6.9,4l0,5.3h1.6l0-4.4l3.4,2l1.2-2l-3.5-2l3.9-2.2l-0.8-1.4
				L49.8,55l-6.9-4l7-4l4.6,2.7l0.8-1.4l-3.8-2.2l3.4-2L53.7,42l-3.4,2l0-4.4h-1.6l0,5.4l-6.9,4v-8.2l4.6-2.7l-0.8-1.4l-3.8,2.2
				l0-3.7h-2.4l0,7.4c-1,0.1-2,0.5-2.8,0.9l-4.3-5.8L30.3,39l4.3,5.8c-0.7,0.7-1.4,1.5-1.8,2.5L25.8,45l-0.7,2.3l6.9,2.3
				c-0.1,0.5-0.1,1-0.1,1.5c0,0.5,0.1,1,0.1,1.5l-6.8,2.2L26,57l6.8-2.2c0.4,0.9,1,1.7,1.8,2.4l-4.2,5.9l1.9,1.4l4.2-5.9
				c0.9,0.5,1.8,0.8,2.9,0.9l0,7.4h2.4L41.7,63.2"/>
			<path d="M42,56.3"/>
			<path class="st0" d="M39.3,57.1c-2.9-0.5-5-3-5-6.1c0-3.1,2.1-5.6,5.1-6.1L39.3,57.1z"/>
			<path class="st3" d="M39.3,57.1c-2.9-0.5-5-3-5-6.1c0-3.1,2.1-5.6,5.1-6.1L39.3,57.1z"/>
			<polyline points="98.3,80.1 86,80.1 86,63.8 72,35.2 85.8,35.2 92.3,50.5 98.7,35.2 112.3,35.2 98.3,63.5 98.3,80.1 			"/>
			<path d="M119.5,57.4c0,5.7,1.5,12.9,7.4,12.9c5.3,0,7.4-5.5,7.4-12.9c0-6.1-2.1-12.6-7.5-12.4C121.2,45,119.5,51.8,119.5,57.4
				 M146.6,57.4c0,15.3-8.6,23.9-19.8,23.9c-11.8,0-19.7-8.7-19.7-24c0-14.1,8-23.2,19.7-23.2C140.3,34.1,146.6,45.6,146.6,57.4z"/>
			<path d="M161.6,54.6h4.9c3.8,0,5.9-1.1,5.9-4.2c0-3.2-2.1-4.7-5-4.7h-5.7V54.6 M161.6,64.5v15.6h-12.3V35.2H167
				c12.5,0,16.7,4.1,16.7,12.8c0,5.2-1.9,9.5-6.3,11c4,1.7,6.4,2.9,6.4,11.9c0,5.9-0.2,7.9,1.3,7.9v1.4h-12.5
				c-0.3-1-0.6-3.9-0.6-7.9c0-5.9-0.8-7.8-6.6-7.8H161.6z"/>
			<polyline points="187.1,35.2 199.4,35.2 199.4,49.8 210.3,35.2 224.7,35.2 211,52.1 226.2,80.1 211.4,80.1 202.4,62.2 
				199.4,65.9 199.4,80.1 187.1,80.1 187.1,35.2 			"/>
			<text transform="matrix(1 0 0 1 224.8311 43.5117)" class="st4 st5">®</text>
		</g>
	</g>
</g>
</svg>
